<?xml version="1.0" encoding="utf-8"?>
<!-- Generator: Adobe Illustrator 25.3.1, SVG Export Plug-In . SVG Version: 6.00 Build 0)  -->
<svg version="1.1" xmlns="http://www.w3.org/2000/svg" xmlns:xlink="http://www.w3.org/1999/xlink" x="0px" y="0px"
	 viewBox="0 0 150 144.33" style="enable-background:new 0 0 150 144.33;" xml:space="preserve">
<style type="text/css">
	.st0{stroke:#000000;stroke-miterlimit:10;}
	.st1{fill:#FFFFFF;}
	.st2{display:none;}
	.st3{display:inline;fill:none;stroke:#000000;stroke-width:10;stroke-linecap:round;stroke-miterlimit:10;}
	.st4{fill:none;stroke:#000000;stroke-width:3;stroke-linejoin:round;stroke-miterlimit:10;}
	.st5{stroke:#000000;stroke-linejoin:round;stroke-miterlimit:10;}
</style>
<g id="Layer_3">
	<g>
		<g>
			<circle class="st0" cx="74" cy="33.34" r="28.63"/>
			<path class="st0" d="M86.96,203H61.04C40.03,203,23,185.97,23,164.97v-56.41c0-21.01,17.03-38.03,38.03-38.03h25.93
				c21.01,0,38.03,17.03,38.03,38.03v56.41C125,185.97,107.97,203,86.96,203z"/>
		</g>
		<circle class="st1" cx="115.74" cy="103.93" r="36.74"/>
		<g class="st2">
			<line class="st3" x1="91.17" y1="103.93" x2="140.32" y2="103.93"/>
			<line class="st3" x1="115.74" y1="128.5" x2="115.74" y2="79.16"/>
		</g>
	</g>
</g>
<g id="Layer_2">
	<path class="st4" d="M147.29,104.35c-15.62-18.85-46.5-18.83-62.11,0.03l0,0.17c18.27,18.99,46.71,18.28,62.11-0.03L147.29,104.35z
		"/>
	<circle class="st5" cx="116.23" cy="104.37" r="10.27"/>
</g>
</svg>
